<?xml version="1.0" standalone="no"?><svg xmlns="http://www.w3.org/2000/svg" viewBox="0 0 1440 320"><path fill="#0099ff" fill-opacity="1" d="M0,192L0,96L120,96L120,96L240,96L240,64L360,64L360,32L480,32L480,192L600,192L600,96L720,96L720,256L840,256L840,160L960,160L960,192L1080,192L1080,32L1200,32L1200,192L1320,192L1320,128L1440,128L1440,320L1320,320L1320,320L1200,320L1200,320L1080,320L1080,320L960,320L960,320L840,320L840,320L720,320L720,320L600,320L600,320L480,320L480,320L360,320L360,320L240,320L240,320L120,320L120,320L0,320L0,320Z"></path></svg>